<svg xmlns="http://www.w3.org/2000/svg" width="35.81" height="33.899" viewBox="0 0 35.81 33.899">
  <g id="_5334210_buy_car_rent_rental_sell_icon" data-name="5334210_buy_car_rent_rental_sell_icon" transform="translate(-57.2 -98.5)">
    <path id="Path_14" data-name="Path 14" d="M90.81,238.45l-1.661-.917a3.984,3.984,0,1,0-6.09-.012l-1.726.925a4.263,4.263,0,0,0-1.987,2.285H70.877a4.243,4.243,0,0,0-1.955-2.289l-1.661-.917a3.984,3.984,0,1,0-6.09-.012l-1.726.925a4.261,4.261,0,0,0-2.245,3.757v3.162a2.135,2.135,0,0,0,3.468,1.669,2.118,2.118,0,0,0,1.332.467h1.533l-.6.809a2.124,2.124,0,0,0-.406,1.448L63,255v.012a1.8,1.8,0,0,0,.346.889v1.641a1.985,1.985,0,0,0,1.983,1.983h1.842a1.985,1.985,0,0,0,1.983-1.983v-.909H81.26v.921a1.985,1.985,0,0,0,1.983,1.983h1.842a1.985,1.985,0,0,0,1.983-1.983v-1.979a1.771,1.771,0,0,0,.149-.551v-.012l.467-5.246a2.118,2.118,0,0,0-.406-1.448l-.6-.809h1.533a2.133,2.133,0,0,0,1.332-.467,2.135,2.135,0,0,0,3.468-1.669v-3.186A4.252,4.252,0,0,0,90.81,238.45Zm.6,6.923a.527.527,0,1,1-1.054,0v-2.908a.8.8,0,0,0-1.609,0v2.908a.529.529,0,0,1-.527.527H85.669l-1.955-3.568a3.064,3.064,0,0,0-2.575-1.589,2.67,2.67,0,0,1,.957-.873l2.756-1.48a.8.8,0,0,0,.036-1.4,2.373,2.373,0,0,1,1.356-4.4,2.375,2.375,0,0,1,1.1,4.4.805.805,0,0,0,.028,1.392l2.671,1.472a2.652,2.652,0,0,1,1.372,2.325v3.186Zm-6.32,12.555H83.243a.376.376,0,0,1-.374-.374v-.921H85.46v.921A.376.376,0,0,1,85.085,257.928Zm-17.917,0H65.326a.376.376,0,0,1-.374-.374v-.921h2.591v.921A.376.376,0,0,1,67.168,257.928Zm-5.692-12.555v-2.908a.8.8,0,0,0-1.609,0v2.908a.527.527,0,1,1-1.054,0v-3.162a2.647,2.647,0,0,1,1.4-2.337l2.756-1.48A.8.8,0,0,0,63,237a2.373,2.373,0,0,1,1.356-4.4,2.375,2.375,0,0,1,1.1,4.4.805.805,0,0,0,.028,1.392l2.671,1.472a2.654,2.654,0,0,1,.945.881,3.076,3.076,0,0,0-2.591,1.589L64.558,245.9H62.011A.537.537,0,0,1,61.476,245.373Zm19.542-3.025a1.462,1.462,0,0,1,1.279.756l1.714,3.13H66.2l1.714-3.13a1.458,1.458,0,0,1,1.279-.756ZM66.947,252.489H64.389l-.1-1.15h2.4Zm-2.168,2.534a.182.182,0,0,1-.181-.157l-.068-.768h2.494a1.548,1.548,0,0,0,1.48-2l-.286-1.243a.487.487,0,0,0-.02-.072,1.54,1.54,0,0,0-1.468-1.058H64.135l-.008-.1a.517.517,0,0,1,.1-.35h0l1.054-1.432H84.916l1.054,1.432a.5.5,0,0,1,.1.35l-.008.1H83.464A1.545,1.545,0,0,0,82,250.787a.486.486,0,0,0-.02.072L81.69,252.1a1.552,1.552,0,0,0,1.484,2h2.494l-.068.768a.179.179,0,0,1-.181.157Zm21.047-2.534H83.267l.265-1.15h2.4Z" transform="translate(0 -127.137)" fill="black"/>
    <path id="Path_15" data-name="Path 15" d="M317.719,102.9a.807.807,0,0,0,.8.8h2.607a.807.807,0,0,0,.8-.8v-2.607a.8.8,0,1,0-1.609,0v.575a9.736,9.736,0,0,0-2.023-1.4,8.418,8.418,0,0,0-7.844,0,9.944,9.944,0,0,0-2.349,1.706v-.555a.8.8,0,1,0-1.609,0v2.607a.807.807,0,0,0,.8.8h2.607a.8.8,0,0,0,0-1.609h-.776a7.388,7.388,0,0,1,5.242-2.313,7.285,7.285,0,0,1,4.9,1.987h-.756A.8.8,0,0,0,317.719,102.9Z" transform="translate(-239.271)" fill="black"/>
    <path id="Path_16" data-name="Path 16" d="M413.4,738.209h5.616a.8.8,0,0,0,0-1.609H413.4a.8.8,0,0,0,0,1.609Z" transform="translate(-341.103 -612.431)" fill="black"/>
  </g>
</svg>
