<svg xmlns="http://www.w3.org/2000/svg" width="13.794" height="32.759" viewBox="0 0 13.794 32.759">
  <g id="Group_57" data-name="Group 57" transform="translate(13.794 32.759) rotate(180)">
    <g id="next_2_" data-name="next (2)" transform="translate(1 0)">
      <g id="Group_50" data-name="Group 50" transform="translate(0 0)">
        <path id="Path_73" data-name="Path 73" d="M12.524,15.481,1.567.37a.753.753,0,0,0-1.3,0,1.633,1.633,0,0,0,0,1.8L10.575,16.38.27,30.591a1.633,1.633,0,0,0,0,1.8.811.811,0,0,0,.65.373.81.81,0,0,0,.649-.371l10.958-15.11a1.632,1.632,0,0,0,0-1.8Z" transform="translate(0 0)" fill="#ccc"/>
      </g>
    </g>
    <g id="next_2_2" data-name="next (2)" transform="translate(0 0)">
      <g id="Group_50-2" data-name="Group 50" transform="translate(0 0)">
        <path id="Path_73-2" data-name="Path 73" d="M12.524,15.481,1.567.37a.753.753,0,0,0-1.3,0,1.633,1.633,0,0,0,0,1.8L10.575,16.38.27,30.591a1.633,1.633,0,0,0,0,1.8.811.811,0,0,0,.65.373.81.81,0,0,0,.649-.371l10.958-15.11a1.632,1.632,0,0,0,0-1.8Z" transform="translate(0 0)" fill="#fff"/>
      </g>
    </g>
  </g>
</svg>
