<svg id="Group_56" data-name="Group 56" xmlns="http://www.w3.org/2000/svg" width="13.794" height="32.759" viewBox="0 0 13.794 32.759">
  <g id="next_2_" data-name="next (2)" transform="translate(1 0)">
    <g id="Group_50" data-name="Group 50" transform="translate(0 0)">
      <path id="Path_73" data-name="Path 73" d="M130.267,15.481,119.309.371a.753.753,0,0,0-1.3,0,1.633,1.633,0,0,0,0,1.8L128.318,16.38,118.012,30.591a1.633,1.633,0,0,0,0,1.8.753.753,0,0,0,1.3,0l10.958-15.11a1.632,1.632,0,0,0,0-1.8Z" transform="translate(-117.742 0)" fill="#ccc"/>
    </g>
  </g>
  <g id="next_2_2" data-name="next (2)" transform="translate(0 0)">
    <g id="Group_50-2" data-name="Group 50" transform="translate(0 0)">
      <path id="Path_73-2" data-name="Path 73" d="M130.267,15.481,119.309.371a.753.753,0,0,0-1.3,0,1.633,1.633,0,0,0,0,1.8L128.318,16.38,118.012,30.591a1.633,1.633,0,0,0,0,1.8.753.753,0,0,0,1.3,0l10.958-15.11a1.632,1.632,0,0,0,0-1.8Z" transform="translate(-117.742 0)" fill="#fff"/>
    </g>
  </g>
</svg>
